# xmcd
#
# Track frame offsets: 
#        150
#        30274
#        54368
#        81526
#        101113
#        127328
#        150187
#        172172
#        201382
#        237688
#        263450
#        312285
#
# Disc length: 4396 seconds
#
# Revision: 1
# Processed by: cddbd v1.5.2PL0 Copyright (c) Steve Scherf et al.
# Submitted via: ExactAudioCopyFreeDBPlugin 1.0
#
DISCID=a4112a0c
DTITLE=群星 - TEST-CD试音极品17CDA
DYEAR=2013
DGENRE=stereo
TTITLE0=萨拉瓦之舞
TTITLE1=丝绸之路
TTITLE2=西湖精神
TTITLE3=埃斯特雷亚
TTITLE4=大地的天职
TTITLE5=趁风扬帆
TTITLE6=领域
TTITLE7=空幻
TTITLE8=生命通道
TTITLE9=进入森林
TTITLE10=天与地
TTITLE11=尼罗河主题[第二版]
EXTD=
EXTT0=
EXTT1=
EXTT2=
EXTT3=
EXTT4=
EXTT5=
EXTT6=
EXTT7=
EXTT8=
EXTT9=
EXTT10=
EXTT11=
PLAYORDER=
